<?xml version="1.0" encoding="utf-8"?>
<!-- Generator: Adobe Illustrator 17.1.0, SVG Export Plug-In . SVG Version: 6.00 Build 0)  -->
<!DOCTYPE svg PUBLIC "-//W3C//DTD SVG 1.1//EN" "http://www.w3.org/Graphics/SVG/1.1/DTD/svg11.dtd">
<svg version="1.1" id="Capa_31" xmlns="http://www.w3.org/2000/svg" xmlns:xlink="http://www.w3.org/1999/xlink" x="0px" y="0px"
	 viewBox="0 0 100 77.4" enable-background="new 0 0 100 77.4" xml:space="preserve">
<path fill="#FFFFFF" d="M98.9,45c-1.1-3.1-2.7-4.1-4.1-4.2C90,35,82,32.5,74.4,34.9c-7.7,2.5-12.7,9.4-13.1,17
	c-0.7,0.7-1.4,1.6-1.4,2.9c-0.2,3.4-2.3,7-4,8.4c-1.7,1.3-1.5,3.4,1.5,8l-0.8,0.5c-0.6-0.5-1.2-0.8-2-0.8l-8.1-0.1l0,0h-0.1
	c-0.1,0-0.2,0-0.2,0c-0.4-0.4-0.9-0.8-1.5-0.9l-7.9-2c-0.3-0.1-0.5-0.1-0.8-0.1c-0.2,0-0.4,0.1-0.6,0.1l-4.9-5.6l0,0
	c-0.1-0.1-0.2-0.1-0.3-0.2l-1.8-8c-0.3-1.2-1.2-2.1-2.4-2.4l-0.2-2.7c4.4-0.5,6.3-1.3,6.3-2.9c0-1.8,0-9.8,0-9.8s3.9-2.2,5.6-3
	c1.7-0.8,2.2-1.6,1.4-2.9c-0.5-0.8-1.4-2.2-2.2-3.3c0.4-1,0.7-2.1,0.9-3.2c1.3-6.5-0.9-12.9-5.2-17.2h0c0,0-3.6-5.4-11.3-6.7
	c-3.3-0.6-4.9,0.3-5.7,1.5C8.1,3,1.9,8.8,0.4,16.6c-1.6,7.9,2,15.6,8.4,19.8c0.2,1,0.8,2,1.9,2.7c2.9,1.8,5,5.4,5.3,7.6
	c0.3,2.1,2.1,2.9,7.2,2.6l0.2,2.9c-0.9,0.6-1.5,1.6-1.5,2.7c0,0.2,0,0.5,0.1,0.7l1.8,8c0.2,0.7,0.5,1.3,1.1,1.7
	c0.1,0.5,0.3,0.9,0.7,1.3l5.4,6.1c0.6,0.7,1.5,1.1,2.4,1.1c0.2,0,0.5-0.1,0.7-0.1c0.3,0.2,0.7,0.4,1,0.5l7.9,2
	c0.3,0.1,0.5,0.1,0.8,0.1c0.1,0,0.1,0,0.2,0c0.6,0.6,1.4,1,2.3,1l8.2,0.2c0,0,0.1,0,0.1,0c1.8,0,3.2-1.4,3.2-3.2c0,0,0-0.1,0-0.1
	c0,0,0-0.1,0-0.1l1.1-0.7c2.4,3.3,4,4.4,5.3,3.7c1.6-0.8,8.5-4.8,8.5-4.8s3.8,2.3,5.3,3.4c1.5,1.1,2.4,1.1,3.2-0.3
	c0.5-0.8,1.2-2.3,1.8-3.5c1.1-0.2,2.1-0.4,3.2-0.7c6.3-2,10.8-7.1,12.5-13v0C98.6,58.2,101.5,52.4,98.9,45z M45.6,73
	c0,0.1,0,0.3-0.1,0.4c-0.1,0.5-0.5,0.9-0.9,1.1c-0.1-0.2-0.1-0.4-0.1-0.6c0-0.7,0.4-1.2,0.9-1.5C45.5,72.6,45.6,72.8,45.6,73z
	 M35.1,70.6c0,0.5-0.2,1-0.6,1.4c0,0-0.1,0-0.1,0.1c-0.2-0.3-0.3-0.6-0.3-1c0-0.1,0-0.3,0.1-0.4c0.1-0.4,0.3-0.8,0.7-1
	C35,69.9,35.1,70.3,35.1,70.6z M26.2,64.4c0-0.5,0.2-1,0.6-1.3c0.3-0.3,0.8-0.4,1.2-0.4c0.3,0,0.5,0.1,0.8,0.2
	c0,0.8-0.6,1.5-1.4,1.7c-0.1,0-0.3,0-0.4,0C26.7,64.6,26.4,64.6,26.2,64.4z M27.1,43.6c-1.3,0.1-2.5-0.8-2.6-2.1
	c-0.1-0.9,0.3-1.8,1.1-2.2l-0.2-1.9c-0.1-0.6,0.4-1.1,0.9-1.2c0.6-0.1,1.1,0.4,1.2,0.9l0.2,1.9c0.8,0.3,1.4,1,1.5,1.9
	C29.3,42.3,28.4,43.5,27.1,43.6z M19.8,33.8c-1.9,0.1-3.5,0.1-4.8,0.2c-7-2.1-11.3-9.1-9.9-16.4c1.1-5.7,5.5-9.9,10.9-11.1
	c0.8,0.6,2,1.2,3.8,0.9c2.5-0.3,6.3,0.5,9.2,2.8c3.3,3.2,5,8.1,4,13c-0.6,3.2-2.3,5.8-4.5,7.8C26.7,32.2,23.9,33.7,19.8,33.8z
	 M23.4,55.3c0-0.1,0-0.3,0-0.4c0-0.4,0.1-0.7,0.4-1c0.2,0.3,0.6,0.6,1.1,0.5c0.6,0,1-0.5,1.1-1.1c0.5,0.2,0.8,0.6,0.9,1.2l1.5,6.9
	c-0.2,0-0.3-0.1-0.5-0.1c-0.8,0-1.5,0.3-2.1,0.8c-0.3,0.3-0.5,0.6-0.7,0.9L23.4,55.3z M27,66.1c0.2,0,0.4,0,0.7-0.1
	c1.1-0.2,1.9-1,2.3-2l3.9,4.5c-0.5,0.4-1,1-1.1,1.8c-0.1,0.3-0.1,0.5-0.1,0.8c0,0.4,0.1,0.9,0.3,1.3c-0.3-0.1-0.7-0.2-0.9-0.5
	L27,66.1z M35.6,72.8c0.6-0.6,0.9-1.4,0.9-2.2c0-0.4-0.1-0.9-0.3-1.3c0,0,0,0,0,0l7.9,2c0.1,0,0.2,0.1,0.3,0.1
	c-0.8,0.6-1.4,1.5-1.4,2.5V74c0,0.3,0.1,0.5,0.1,0.7L35.6,72.8z M54.5,75.9L54.5,75.9l-8.2-0.2c-0.2,0-0.4-0.1-0.6-0.1
	c0.6-0.4,1.1-1.1,1.3-1.8C47,73.5,47,73.3,47,73c0-0.3-0.1-0.5-0.1-0.8l7.6,0.1c0.3,0,0.5,0.1,0.8,0.2l-0.6,0.4
	c-0.6,0.4-0.8,1.1-0.4,1.7c0.4,0.6,1.1,0.7,1.7,0.4C55.6,75.6,55.1,75.9,54.5,75.9z M69.7,68.6l-1.5,1.1c0.1,0.9-0.2,1.7-1,2.3
	c-1.1,0.8-2.5,0.5-3.3-0.6c-0.8-1.1-0.5-2.5,0.6-3.3c0.8-0.5,1.7-0.6,2.5-0.2l1.5-1.1c0.5-0.3,1.1-0.2,1.5,0.2
	C70.3,67.6,70.2,68.3,69.7,68.6z M94,56.7c-1.2,4.5-4.6,8.3-9.3,9.9c-3.1,1-6.2,0.9-9.1-0.1c-1.9-0.9-4.6-2.7-6.7-6.2
	c-1-1.7-1.8-3-2.5-4.1c-1.6-7.1,2.4-14.3,9.5-16.6c5.5-1.8,11.3,0,15,4.1c-0.2,0.9,0,2.3,1,3.8C93.3,49.3,94.6,53.1,94,56.7z"/>
</svg>
