<?xml version="1.0" encoding="utf-8"?>
<!-- Generator: Adobe Illustrator 17.1.0, SVG Export Plug-In . SVG Version: 6.00 Build 0)  -->
<!DOCTYPE svg PUBLIC "-//W3C//DTD SVG 1.1//EN" "http://www.w3.org/Graphics/SVG/1.1/DTD/svg11.dtd">
<svg version="1.1" id="Layer_1" xmlns="http://www.w3.org/2000/svg" xmlns:xlink="http://www.w3.org/1999/xlink" x="0px" y="0px"
	 viewBox="0 0 100 100" enable-background="new 0 0 100 100" xml:space="preserve">
<g>
	<path fill="#FFFFFF" d="M89.4,42c-0.4-0.4-1-0.5-1.6-0.4l-14.1,2.3v-31h-9.4v32.6l-8.5,1.4v-34h-9.4v35.5L38,49.9V12.9h-9.4v38.5
		l-17.8,3c-0.9,0.1-1.6,0.9-1.6,1.9v29.7c0,1.1,0.9,1.9,1.9,1.9h77.1c1.1,0,1.9-0.9,1.9-1.9V43.5C90,42.9,89.8,42.4,89.4,42z
		 M86.2,84H13V57.9l73.2-12.1V84z"/>
	<rect x="54.5" y="57.6" fill="#FFFFFF" width="6.4" height="7.5"/>
	<rect x="65.2" y="57.6" fill="#FFFFFF" width="6.4" height="7.5"/>
	<rect x="75.8" y="57.6" fill="#FFFFFF" width="6.4" height="7.5"/>
	<rect x="65.2" y="69.1" fill="#FFFFFF" width="6.4" height="7.5"/>
	<rect x="75.8" y="69.1" fill="#FFFFFF" width="6.4" height="7.5"/>
</g>
</svg>
