<?xml version="1.0" encoding="utf-8"?>
<!-- Generator: Adobe Illustrator 17.1.0, SVG Export Plug-In . SVG Version: 6.00 Build 0)  -->
<!DOCTYPE svg PUBLIC "-//W3C//DTD SVG 1.1//EN" "http://www.w3.org/Graphics/SVG/1.1/DTD/svg11.dtd">
<svg version="1.1" id="Layer_1" xmlns="http://www.w3.org/2000/svg" xmlns:xlink="http://www.w3.org/1999/xlink" x="0px" y="0px"
	 viewBox="0 0 100 100" enable-background="new 0 0 100 100" xml:space="preserve">
<g>
	<path fill="#FFFFFF" d="M34.8,29.2L21.5,18.5c0,0-3.1-9.5,6.7-6.7c0,0,5.9,2.1,9.5-2.8c0,0,4.1-14.9,16.1-4.1
		c0,0,3.8,12.5,9.5,10.2c0,0,5.9-10.7,14.1-4.8c0,0,5.4,6.9-11.3,19L34.8,29.2L34.8,29.2z"/>
	<path fill="#FFFFFF" d="M84.6,65.4c0,0-1.5-9.1-20.2-24.3H33.9c0,0-19.2,17.9-22.3,27.7c0,0-3.6,21.8,23.8,27.9
		c0,0,18.4,4.4,35.3-3.1C70.8,93.5,93.1,88.4,84.6,65.4z M50.9,80.8v5h-3V81c-2.8,0-5.6-0.9-7.3-2.1l1.2-3.2
		c1.7,1.1,4.2,2.1,6.9,2.1c3.4,0,5.7-2,5.7-4.7c0-2.6-1.9-4.3-5.4-5.7c-4.9-1.9-8-4.2-8-8.4c0-4,2.8-7,7.2-7.8v-4.8h3V51
		c2.8,0.1,4.8,0.9,6.3,1.7l-1.2,3.2c-1-0.6-3-1.7-6.1-1.7c-3.7,0-5.1,2.2-5.1,4.2c0,2.5,1.8,3.7,6,5.5c5,2,7.5,4.5,7.5,8.8
		C58.5,76.5,55.9,80.1,50.9,80.8z"/>
	<rect x="30.7" y="32.1" fill="#FFFFFF" width="38.5" height="6"/>
</g>
</svg>
