<?xml version="1.0" encoding="utf-8"?>
<!-- Generator: Adobe Illustrator 17.1.0, SVG Export Plug-In . SVG Version: 6.00 Build 0)  -->
<!DOCTYPE svg PUBLIC "-//W3C//DTD SVG 1.1//EN" "http://www.w3.org/Graphics/SVG/1.1/DTD/svg11.dtd">
<svg version="1.1" id="Layer_1" xmlns="http://www.w3.org/2000/svg" xmlns:xlink="http://www.w3.org/1999/xlink" x="0px" y="0px"
	 viewBox="0 0 100 100" enable-background="new 0 0 100 100" xml:space="preserve">
<circle fill="#FFFFFF" cx="10.6" cy="87.3" r="6.8"/>
<circle fill="#FFFFFF" cx="65.6" cy="86.4" r="7.6"/>
<path fill="#FFFFFF" d="M100,8.2l-19,0l-0.1,0l0,0h-0.1v0.1l-2.7,6.9L0,21.4l4.5,38.5H61l-3.6,9.4l-51,3.2l-1.5,5.4l59.6-1.1
	l0.6-2.3L87,17.3l13,0L100,8.2z M75.1,23.3l-5.5,14.3H56.7V24.4l18-1.4C74.8,23,75,23.1,75.1,23.3z M36.4,40.5v12H24.6v-12H36.4z
	 M24.6,37.5V26.9L36.4,26v11.6C36.4,37.5,24.6,37.5,24.6,37.5z M40.6,40.5h11.9v12H40.6V40.5z M40.6,37.5V25.6l11.9-0.9v12.8H40.6z
	 M20.4,27.2v10.3h-11l-1.1-9.4L20.4,27.2z M9.7,40.5h10.7v12h-9.3L9.7,40.5z M56.7,52.5v-12h11.8l-4.6,12L56.7,52.5L56.7,52.5z"/>
</svg>
