<?xml version="1.0" encoding="utf-8"?>
<!-- Generator: Adobe Illustrator 17.1.0, SVG Export Plug-In . SVG Version: 6.00 Build 0)  -->
<!DOCTYPE svg PUBLIC "-//W3C//DTD SVG 1.1//EN" "http://www.w3.org/Graphics/SVG/1.1/DTD/svg11.dtd">
<svg version="1.1" id="Layer_1" xmlns="http://www.w3.org/2000/svg" xmlns:xlink="http://www.w3.org/1999/xlink" x="0px" y="0px"
	 viewBox="0 0 100 100" enable-background="new 0 0 100 100" xml:space="preserve">
<g>
	<path fill="#FFFFFF" d="M87.4,36.4c-0.6-2-2.3-3.3-3.7-2.9l-12,3.8l-4.1-11.5c0-0.1-0.1-0.2-0.2-0.4c0,0,0,0,0,0
		c0,0-0.1-0.1-0.1-0.1c-0.2-0.3-0.4-0.5-0.7-0.6l-15.9-8.3c-0.3-0.2-0.7-0.2-1-0.2c-0.4,0-0.8,0.1-1.1,0.3l-15,8.9
		c-0.6,0.3-0.9,1-1,1.7c-0.2,0-0.4,0-0.7,0c-2.8,0-5.2,1.9-5.8,4.5l-0.9-0.9c-2.2-2.3-5.8-2.4-8.1-0.2l-3.1,2.9
		c-2.3,2.2-2.4,5.8-0.2,8.1l8.7,9.1c2.2,2.3,5.8,2.4,8.1,0.2l3.1-2.9c2.3-2.2,2.4-5.8,0.2-8.1l-0.8-0.8c2.7-0.6,4.8-3,4.8-5.9
		c0-0.4,0-0.8-0.1-1.2L50,24.6l3,1.6L38.7,41.4c-1.4,1.5-0.4,3.9-0.4,3.9l-3.4,18.6c0,0,0,0-0.1,0.1L21.4,80.3
		c-1.1,1.4-0.5,3.7,1.5,5.3c1.9,1.6,4.4,1.8,5.5,0.4l13.4-16.3c0.2-0.3,0.4-0.6,0.5-1c0.1-0.2,0.2-0.4,0.2-0.7l3-16.7c0,0,0,0,0,0
		l5.9,8.8L41,72.9c-1.1,1.4-0.5,3.7,1.5,5.3c1.9,1.6,4.4,1.8,5.5,0.4l12.4-15.1c0.4-0.4,0.7-0.8,1-1.2l0-0.1
		c0.3-0.4,0.5-0.9,0.5-1.4c0.1-0.7,0-1.3-0.4-1.9l-0.2-0.3c-0.2-0.3-0.3-0.5-0.5-0.8l-7.1-10.5L63.5,37l2.1,6c0,0.1,0,0.1,0.1,0.2
		c0.6,2,2.3,3.3,3.7,2.9l16.7-5.3C87.4,40.4,88,38.4,87.4,36.4z M32,37.5c-2.5,0-4.5-2-4.5-4.5c0-2.5,2-4.5,4.5-4.5
		c0.3,0,0.5,0,0.8,0.1c0.1,0.5,0.3,0.9,0.6,1.4c0.8,1.3,2,2.1,3,2.2c0,0.3,0.1,0.5,0.1,0.8C36.5,35.5,34.5,37.5,32,37.5z"/>
	<path fill="#FFFFFF" d="M68.2,16.7c-0.5,0.9-0.8,2-0.8,3.2c0,3.8,3,6.8,6.8,6.8c2,0,3.8-0.9,5.1-2.3c0.7,0,1.4-0.4,1.8-1
		c0.6-0.9,0.5-1.9-0.1-2.5c0-0.3,0.1-0.6,0.1-1c0-3.8-3.1-6.8-6.8-6.8c-2,0-3.7,0.8-5,2.1c-0.5-0.7-1.1-1.6-0.7-2.1
		c0,0-1.7,0.4-1,2.1c0,0.1,0.1,0.2,0.1,0.2c-0.1,0-0.1,0-0.2,0.1c-1.7,0.7-0.8,2.2-0.8,2.2C66.8,17.1,67.5,16.9,68.2,16.7z"/>
</g>
</svg>
