<?xml version="1.0" encoding="utf-8"?>
<!-- Generator: Adobe Illustrator 17.1.0, SVG Export Plug-In . SVG Version: 6.00 Build 0)  -->
<!DOCTYPE svg PUBLIC "-//W3C//DTD SVG 1.1//EN" "http://www.w3.org/Graphics/SVG/1.1/DTD/svg11.dtd">
<svg version="1.1" id="Your_Icon" xmlns="http://www.w3.org/2000/svg" xmlns:xlink="http://www.w3.org/1999/xlink" x="0px" y="0px"
	 viewBox="0 0 100 100" enable-background="new 0 0 100 100" xml:space="preserve">
<g transform="translate(0.000000,1004.000000) scale(0.100000,-0.100000)">
	<path fill="#FFFFFF" d="M350.6,9980l0.1-5.4c0.4-27.3-4.7-104.2-9.8-145.1c-26.3-213.2-91.3-395.4-189.6-531.5
		c-11-15.2-28.2-37.1-39-49.4l-8.4-9.7l9.2-2.6c4.4-1.3,7.4-1.9,8.7-1.9c0.5,0,0.7,0.1,0.8,0.3c1.2,2.8,7,7.5,10.5,8.4
		c1.4,0.4,2.8,0.6,4.2,0.6c2.9,0,5.7-1,9.1-3c3.8-2.3,9-9.4,9.5-13.2l0.3-2.4l17.7-4.5l17.7-4.5l1.2,2.5c1.7,3.2,6.5,6.6,10.4,7.3
		c0.9,0.2,1.9,0.3,2.8,0.3c3.8,0,7.4-1.6,11.3-4.8c3.3-2.9,4.6-4.7,6.1-8.7l1.9-5.1l17.6-4.5l17.6-4.5l0.7,2.2
		c1.5,4.5,7.8,7.8,13.9,7.8c1.3,0,2.6-0.1,3.9-0.5c5.9-1.6,12.3-8.6,14.5-15.7c0.7-2.3,0.8-2.4,18-6.8l17.3-4.4l2.3,3.4
		c1.3,1.8,4.1,4.3,6.2,5.3c1.9,0.9,3.1,1.3,4.6,1.3c1.3,0,2.8-0.3,5.2-0.9c5.1-1.3,6.3-2,9.3-5.2c1.8-2.1,4.1-5.8,5-8.2l1.6-4.4
		l17.4-4.4l17.3-4.4l1.2,2.4c2.3,4.4,8.3,7.6,13.6,7.6c1,0,1.9-0.1,2.8-0.3c6.9-1.8,14.8-9.7,15.6-15.8l0.3-2.4l17.6-4.5l17.6-4.4
		l2.7,3.9c2.6,3.9,7,6,11.6,6c3.4,0,6.9-1.1,10.1-3.4c3.7-2.6,7.7-8.3,8.8-12.2l0.7-2.9l17.3-4.4l17.3-4.4l2.7,3.6
		c2.9,4.1,7.4,6.2,12,6.2c3.3,0,6.7-1.1,9.9-3.2c3.8-2.7,8-8.7,9-12.9l0.7-2.4l17.4-4.4l17.5-4.5l1.7,2.9c2.6,4.5,7.3,7,12.4,7
		c1.9,0,3.8-0.3,5.8-1c5.6-2.1,10-6.5,12.5-12.9c1.9-4.5,2.1-4.8,6-5.8l4-1l7.3,8.3c30.4,35,65.1,89.8,93.7,148.2
		c63.8,129.9,108.8,289.3,133.6,472.1c3.3,24.6,10.2,84.9,11.7,103.9l0.8,9l-8.4,2.1l-8.4,2.1l-1.3-3.4c-1.7-4.2-5.9-8.2-9.9-9.2
		c-0.6-0.1-1.3-0.2-2.2-0.2c-1.7,0-3.9,0.3-5.8,0.8c-8.3,2.1-13.6,8.6-15.5,19.4c-0.3,1.5-1.9,2.1-17.3,6l-16.9,4.3l-1.3-3.7
		c-1.5-4.3-6.2-8.3-10.3-9.1c-0.6-0.1-1.2-0.2-1.9-0.2c-3.9,0-9.4,1.6-12.2,3.8c-3.8,2.9-7.7,9-8.4,13.9l-0.6,4.1l-16.9,4.3
		c-10.1,2.6-14.3,3.6-16.1,3.6c-0.9,0-1.2-0.3-1.4-0.7c-3-7.6-7.5-11.4-13.6-11.4c-1.4,0-2.9,0.2-4.4,0.6c-2.9,0.7-6.3,2.3-7.8,3.5
		c-3.7,3-7.1,8.9-8,13.8l-0.7,4l-16.9,4.3l-16.8,4.3l-0.8-2.5c-1.2-4-6-8.7-9.9-9.9c-1.1-0.3-2.2-0.4-3.5-0.4
		c-4.3,0-9.5,1.8-12.8,4.6c-3.8,3.1-6.8,8.8-7.7,13.7l-0.6,3.6l-16.9,4.3l-16.9,4.3l-0.7-2.4c-1.1-3.7-4.2-7.2-8-9.2
		c-1.6-0.9-2.8-1.3-4.5-1.3c-1.2,0-2.8,0.2-5,0.7c-5.5,1.1-6.4,1.6-9.7,4.9c-3.4,3.3-6,8.8-6.9,14.6c-0.3,1.5-1.9,2.1-17.4,6.1
		l-17,4.3l-0.2-2.1c-0.3-3.8-5.5-9.2-9.7-10.4c-1.1-0.3-2.3-0.4-3.5-0.4c-4.1,0-8.9,1.3-12,3.6c-3.7,2.7-8.2,10.5-8.6,14.6l-0.3,3.5
		l-16.9,4.3l-16.9,4.3l-1.4-3.1c-2.6-6.3-7.3-9.7-13.2-9.7c-1.4,0-2.9,0.2-4.4,0.6c-2.8,0.7-6.2,2.2-7.7,3.5c-3.7,3-7.1,8.9-8,13.8
		l-0.7,4l-16.8,4.3l-16.8,4.3l-1.4-3.5c-1.7-4.2-5.9-8.2-9.9-9.2c-0.8-0.2-1.6-0.3-2.6-0.3c-4.3,0-10,1.9-13.3,4.7
		c-3.6,3.1-6.4,8.2-7.6,13.6c-0.7,3.7-0.7,3.7-5.4,4.9L350.6,9980L350.6,9980z"/>
</g>
</svg>
