<?xml version="1.0" encoding="utf-8"?>
<!-- Generator: Adobe Illustrator 17.1.0, SVG Export Plug-In . SVG Version: 6.00 Build 0)  -->
<!DOCTYPE svg PUBLIC "-//W3C//DTD SVG 1.1//EN" "http://www.w3.org/Graphics/SVG/1.1/DTD/svg11.dtd">
<svg version="1.1" id="Layer_1" xmlns="http://www.w3.org/2000/svg" xmlns:xlink="http://www.w3.org/1999/xlink" x="0px" y="0px"
	 viewBox="0 0 100 100" enable-background="new 0 0 100 100" xml:space="preserve">
<g>
	<path fill="#FFFFFF" d="M90.6,50l6.9-14.2c0.4-0.8,0.1-1.9-0.7-2.3l-13.9-7.4l-2.7-15.5c-0.2-0.9-1-1.5-2-1.4l-15.6,2.2L51.2,0.5
		c-0.7-0.6-1.7-0.6-2.4,0L37.5,11.4L21.9,9.2c-0.9-0.1-1.8,0.5-2,1.4l-2.8,15.5L3.3,33.5C2.5,34,2.1,35,2.5,35.8L9.4,50L2.5,64.2
		C2.1,65,2.5,66,3.3,66.4l13.9,7.4l2.8,15.5c0.2,0.9,1,1.5,2,1.4l15.6-2.2l11.3,10.9c0.3,0.3,0.8,0.5,1.2,0.5c0.4,0,0.9-0.2,1.2-0.5
		l11.3-10.9l15.6,2.2c0.9,0.1,1.8-0.5,2-1.4l2.7-15.5l13.9-7.4c0.8-0.4,1.2-1.5,0.7-2.3L90.6,50z M80.4,71.2
		c-0.5,0.2-0.8,0.7-0.9,1.2l-2.6,14.7L62.2,85c-0.5-0.1-1.1,0.1-1.5,0.5L50,95.8L39.3,85.5c-0.3-0.3-0.8-0.5-1.2-0.5
		c-0.1,0-0.2,0-0.2,0l-14.8,2.1l-2.6-14.7c-0.1-0.5-0.4-1-0.9-1.2l-13.2-7l6.5-13.4c0.2-0.5,0.2-1,0-1.5L6.4,35.8l13.2-7
		c0.5-0.2,0.8-0.7,0.9-1.2l2.6-14.7L37.8,15c0.5,0.1,1.1-0.1,1.5-0.5L50,4.2l10.7,10.3c0.4,0.4,0.9,0.5,1.5,0.5l14.8-2.1l2.6,14.7
		c0.1,0.5,0.4,1,0.9,1.2l13.2,7l-6.5,13.4c-0.2,0.5-0.2,1,0,1.5l6.5,13.4L80.4,71.2z"/>
	<path fill="#FFFFFF" d="M54.5,25.9h-9c-1,0-1.7,0.8-1.7,1.7v26.9c0,1,0.8,1.7,1.7,1.7h9c1,0,1.7-0.8,1.7-1.7V27.6
		C56.2,26.6,55.4,25.9,54.5,25.9z M52.7,52.7h-5.5V29.3h5.5V52.7z"/>
	<path fill="#FFFFFF" d="M50,61.7c-3.4,0-6.2,2.8-6.2,6.2c0,3.4,2.8,6.2,6.2,6.2c3.4,0,6.2-2.8,6.2-6.2C56.2,64.5,53.4,61.7,50,61.7
		z M50,70.7c-1.5,0-2.7-1.2-2.7-2.7c0-1.5,1.2-2.7,2.7-2.7c1.5,0,2.7,1.2,2.7,2.7C52.7,69.4,51.5,70.7,50,70.7z"/>
</g>
</svg>
